<svg xmlns="http://www.w3.org/2000/svg" width="94" height="35" viewBox="0 0 94 35"><path fill="#222" d="M1.72 25.5a15.1 15.1 0 0 0 3.14-4.45l-.01 8.17c0 .48.14.95.41 1.35l1.93 2.89c.23.34.6.54 1.01.54h2.32a.8.8 0 0 0 .81-.8v-.43c0-.25-.06-.5-.17-.73l-1.28-2.55a1.7 1.7 0 0 1-.17-.73v-5.67a.4.4 0 0 1 .41-.41h.02c2.93.14 5.6 1.61 9.28 1.61a12.9 12.9 0 0 0 4.32-.55c.21-.07.44.03.52.24l.02.14v5.1c0 .48.14.95.41 1.35l1.93 2.89c.23.34.6.54 1.01.54h2.32a.8.8 0 0 0 .81-.8v-.43c0-.25-.06-.5-.17-.73l-1.28-2.55a1.66 1.66 0 0 1-.17-.73v-4.97c0-.73.2-1.45.58-2.08l4.14-6.92c.05-.09.17-.13.26-.08l.06.04 1.33 1.33a4.3 4.3 0 0 1 1.32 2.12c.05.65.56 1.17 1.22 1.23h2.42a1.2 1.2 0 0 0 1.22-1.17v-.04c.07-.78.4-4.51.4-6.89 0-2.37-.5-3.76-1.61-4.86a3.92 3.92 0 0 0-.37-.34.43.43 0 0 1-.15-.42c.47-1.92.99-5.71-.33-5.71-1.13 0-2.06 1.88-3.49 4.65a.37.37 0 0 1-.36.21h-.17a3.61 3.61 0 0 0-2.36.67l-6.36 4.91c-.75.58-1.66.89-2.61.89H12.95c-5.88 0-7.79 1.08-9.72 6.48a41.78 41.78 0 0 1-3.06 6.83c-.62.98.59 1.77 1.55.86zM87.76 31.03c-4.31 0-5.77-4.67-7.04-4.69v3.42c0 .31.13.61.35.83l.88.88c.22.22.34.52.34.83v1.08c0 .43-.35.78-.78.78h-7.83a.78.78 0 0 1-.78-.78v-6.64a.39.39 0 0 0-.39-.39h-.01c-2.83.13-5.42 1.55-8.98 1.55-1.42.07-2.83-.11-4.18-.53a.38.38 0 0 0-.49.24.3.3 0 0 0-.03.13v2.02c0 .31.13.61.35.83l.87.88c.22.22.35.52.35.83v1.08c0 .43-.35.78-.79.78h-7.82a.78.78 0 0 1-.78-.78v-13.3c0-5.16 1.08-8.17 3.49-10.58S59.91 6 65.06 6h6.29c5.16 0 8.17 1.09 10.57 3.5 2.41 2.41 3.5 5.42 3.5 10.58v2.35c0 3.48 1.21 4.69 2.73 4.69a1.9 1.9 0 0 0 1.89-1.69c.04-.4.39-.68.79-.65l1.73.22c.38.05.67.37.68.76.08 2.98-2.68 5.27-5.48 5.27z"/></svg>