<svg xmlns="http://www.w3.org/2000/svg" width="51" height="38" viewBox="0 0 51 38">
  <g fill="none" fill-rule="evenodd">
    <path fill="#000" d="M33.9794408,13.6253177 L33.9794408,3.55346492 C33.9794408,1.59907344 32.3950886,0.0147212123 30.4406971,0.0147212977 L30.4406973,0.0147212977 L3.54624576,0.0147212977 L3.54624545,0.0147210727 C1.59185397,0.0147210727 0.00750212222,1.59907321 0.00750182711,3.5534647 L0.00750182711,3.55346492 L0.00750182711,24.7859267 C0.00750182711,26.7403181 1.59185397,28.3246702 3.54624545,28.3246703 L3.5462456,28.3246703 L27.0221905,28.3246703 C26.3843957,26.9686593 26.0283203,25.4569015 26.0283203,23.862915 C26.0283203,18.9569936 29.4013008,14.8299968 33.9794408,13.6253177 Z M5.78584582,26.0656779 L5.78584592,26.0656779 C6.49582405,26.3925998 7.33643844,26.082774 7.66442336,25.3732874 L11.0604848,18.0181503 L13.8721582,20.8279127 L13.8721583,20.8279129 C14.4249681,21.3806752 15.3212101,21.3806377 15.873976,20.8278279 C15.9920045,20.7097896 16.0882243,20.5718041 16.1581888,20.4202496 L19.4109312,13.3764512 L22.2343532,17.1394804 L22.234353,17.1394802 C22.7040526,17.7648909 23.5918151,17.8911164 24.2172243,17.4214197 C24.4471082,17.2487708 24.619002,17.010246 24.7100567,16.7375497 L28.9572568,4.00196528 L28.9572568,4.00196505 C29.20439,3.26019484 28.8034064,2.45852786 28.0616362,2.21139616 C27.319866,1.96426304 26.518199,2.36524658 26.2710673,3.10701678 L22.8783323,13.2803385 L20.2525845,9.78059183 L20.2525845,9.7805918 C19.7829727,9.15516416 18.8952711,9.02884942 18.2698406,9.49846193 C18.0824174,9.63919139 17.9328531,9.82423937 17.8345617,10.0370099 L14.438571,17.3921469 L11.6269684,14.5823845 L11.6269684,14.5823845 C11.0738359,14.0295578 10.1772796,14.0298055 9.62445002,14.5829374 C9.50656598,14.7008866 9.41044379,14.8387313 9.34051326,14.9901187 L5.09359627,24.1875965 L5.09359627,24.1875965 C4.76622851,24.8973765 5.07613505,25.7381607 5.7858453,26.0656785 L5.78584582,26.0656779 Z"/>
    <path fill="#222" d="M37.2787647,15.000009 L37.2787647,15.000009 C42.3960915,14.9929483 46.5502234,19.1356379 46.5573043,24.2529598 C46.5600602,26.2502902 45.9173443,28.1950414 44.7249389,29.7973857 L49.733855,34.0340465 L49.733855,34.0340465 C50.5381745,34.7204473 50.6337663,35.9289092 49.9473665,36.7332287 C49.2609656,37.5375482 48.0525037,37.63314 47.2481842,36.9467401 C47.1715037,36.8813016 47.1001113,36.8099092 47.0346728,36.7332287 L42.7969865,31.7250939 L42.7969864,31.725094 C38.6819702,34.7749311 32.8736961,33.9114301 29.8238883,29.7964188 C26.7740512,25.6814027 27.6375522,19.8731286 31.7525635,16.8233208 C33.3513185,15.6384065 35.2888082,14.9991594 37.2787744,15.0000188 L37.2787647,15.000009 Z M37.2787647,31.6034493 L37.2787644,31.6034493 C41.3242756,31.6034495 44.6038116,28.3239134 44.6038116,24.2784021 C44.6038118,20.2328909 41.3242756,16.9533549 37.2787644,16.9533549 C33.2332531,16.9533548 29.9537172,20.2328909 29.9537172,24.2784021 L29.9537172,24.2783547 C29.9537178,28.3238464 33.2332238,31.6033531 37.2787156,31.6034019 L37.2787647,31.6034493 Z"/>
  </g>
</svg>
