<svg xmlns="http://www.w3.org/2000/svg" width="24" height="20" viewBox="0 0 24 20"><path fill="#888" d="M24 2.37c-.88.4-1.83.67-2.83.79A5.02 5.02 0 0 0 23.34.37c-.95.58-2.01 1-3.13 1.22A4.87 4.87 0 0 0 16.62 0a5 5 0 0 0-4.8 6.2A13.86 13.86 0 0 1 1.67.92a5.07 5.07 0 0 0 1.52 6.74 4.87 4.87 0 0 1-2.23-.62v.06c0 2.44 1.7 4.49 3.95 4.95a4.57 4.57 0 0 1-2.22.09c.63 2 2.44 3.46 4.6 3.5A9.69 9.69 0 0 1 0 17.73 13.72 13.72 0 0 0 7.55 20c9.06 0 14.01-7.69 14.01-14.36l-.02-.66c.97-.71 1.8-1.6 2.46-2.61"/></svg>