<svg xmlns="http://www.w3.org/2000/svg" width="24" height="24" viewBox="0 0 24 24"><path fill="#888" d="M8.65 1C.45 3.46-1.46 7.01 1 15.22c2.46 8.2 6.01 10.11 14.22 7.65 8.2-2.46 10.11-6.01 7.65-14.22C20.41.45 16.86-1.46 8.65 1zm8.53 13.5l.53 1.6c.22.64-.13 1.35-.78 1.56-.14.05-.28.07-.42.07a1.24 1.24 0 0 1-1.14-.85l-.54-1.6-3.19 1.07.54 1.6c.21.65-.14 1.35-.78 1.57a1.24 1.24 0 0 1-1.57-.78l-.54-1.6-1.54.51a1.24 1.24 0 0 1-.79-2.34l1.55-.52-1.03-3.07-1.55.52a1.23 1.23 0 0 1-1.56-.78c-.22-.65.13-1.35.78-1.57l1.54-.52-.53-1.6c-.22-.65.13-1.35.78-1.56.65-.22 1.35.13 1.56.78l.54 1.6 3.19-1.07-.54-1.6c-.21-.65.14-1.35.78-1.57.65-.21 1.35.14 1.57.78l.54 1.6 1.54-.51a1.24 1.24 0 1 1 .79 2.34l-1.55.52 1.03 3.07 1.55-.52a1.24 1.24 0 1 1 .78 2.35zm-4.16-4.63l1.02 3.07L10.85 14l-1.02-3.07z"/></svg>