<svg xmlns="http://www.w3.org/2000/svg" width="52" height="32" viewBox="0 0 52 32"><path fill="#222" d="M30.35 31.96a.8.8 0 0 1-.8-.75 7.53 7.53 0 0 0-1.36-4.4 1 1 0 0 1 .41-1.57l.07-.02c3.46-1.29 4.66-2.56 4.86-5.71a7.3 7.3 0 0 1-1.6-1.38 7.58 7.58 0 0 1-1.53-3.74h-.11c-.87 0-1.53-1.83-1.53-3.11 0-1.29.45-1.68.87-1.68a2 2 0 0 1 .25.01c-.2-.81-.3-1.64-.31-2.47 0-3.12.87-5.28 3.54-5.66C34.59.45 36.83 0 39.68 0c1.83 0 .31 1.25 2.03 1.62 1.06.22 3.04.97 3.04 5.52-.01.83-.12 1.66-.32 2.47l.25-.01c.43 0 .87.39.87 1.68 0 1.28-.65 3.11-1.52 3.11h-.12a7.66 7.66 0 0 1-1.52 3.74c-.46.53-1 .99-1.59 1.37.2 3.16 1.39 4.43 4.87 5.72 3.61 1.34 5.26 2.27 5.47 5.89a.8.8 0 0 1-.76.85h-.04zM7.99 19.18c.34 0 .61-.31 1.01-.72.41.41.86.77 1.35 1.08-.21 3.13-1.41 4.4-4.87 5.68C1.86 26.56.21 27.49 0 31.11v.04c0 .45.36.81.8.81h26.41a.8.8 0 0 0 .76-.85c-.21-3.62-1.85-4.55-5.47-5.89-3.47-1.28-4.66-2.55-4.88-5.68.49-.31.93-.67 1.34-1.07.39.4.66.71 1.02.71 1.02 0 3.99-2.49 3.99-8.31 0-7.11-3.34-9.67-6.79-9.67C15.97.1 14.91 0 12.65 0 7.94 0 3.99 4 3.99 10.87c0 5.86 3.01 8.31 4 8.31z"/></svg>