<svg xmlns="http://www.w3.org/2000/svg" width="24" height="20" viewBox="0 0 24 20"><path fill="#888" d="M15.57 13.16c.9 0 1.62-.72 1.62-1.61 0-.89-.72-1.63-1.62-1.63-.9 0-1.65.74-1.65 1.63 0 .89.75 1.61 1.65 1.61zm.38 3.13a.64.64 0 0 0 0-.92.66.66 0 0 0-.93 0c-.57.57-1.56.85-3.01.85h-.02c-1.45 0-2.44-.28-3.01-.85a.67.67 0 0 0-.93 0 .64.64 0 0 0 0 .92c.83.82 2.12 1.23 3.94 1.23h.02c1.82 0 3.11-.41 3.94-1.23zm-9.14-4.74a1.63 1.63 0 0 0 3.27 0c0-.88-.73-1.63-1.63-1.63-.89 0-1.64.75-1.64 1.63zM20 1.3c-.61 0-1.1.49-1.1 1.09 0 .6.49 1.09 1.1 1.09.61 0 1.1-.49 1.1-1.09 0-.6-.49-1.09-1.1-1.09zm4 8.49c0 1.01-.53 1.9-1.34 2.41.03.2.04.41.04.62 0 1.97-1.15 3.81-3.25 5.16a13.97 13.97 0 0 1-7.5 2.02c-2.82 0-5.48-.72-7.49-2.02-2.1-1.35-3.26-3.19-3.26-5.16 0-.23.02-.46.05-.68A2.87 2.87 0 0 1 0 9.79a2.9 2.9 0 1 1 4.66-2.26 13.9 13.9 0 0 1 6.89-1.88L13.1.8c.1-.33.44-.52.77-.44l3.99.93A2.4 2.4 0 0 1 20 0a2.4 2.4 0 0 1 2.41 2.39 2.41 2.41 0 1 1-4.82.17l-3.43-.8-1.24 3.91c2.39.14 4.62.8 6.38 1.9.49-.4 1.13-.64 1.82-.64A2.87 2.87 0 0 1 24 9.79z"/></svg>