<svg xmlns="http://www.w3.org/2000/svg" width="23" height="24" viewBox="0 0 23 24">
  <g fill="none">
    <path fill="#111" d="M1.3211574,23.3180726 C1.05026088,23.0377952 0.893486724,22.6014282 0.893486724,22.036316 L0.893486724,1.87912665 C0.893486724,1.3140144 1.05026088,0.87764748 1.3211574,0.597370034 L1.38801696,0.535845716 L12.8163918,11.8266973 L12.8163918,12.0933027 L1.38801696,23.3841543 L1.3211574,23.3180726 Z"/>
    <path fill="#777" d="M16.7115379,8.1101728 L12.8163918,11.96 L1.3211574,0.597370034 C1.74882807,0.153027741 2.44624252,0.0994787979 3.2393353,0.543821091 L16.7115379,8.1101728"/>
    <path fill="#AAA" d="M12.8163918,11.8266973 L12.8163918,12.0933027 L16.6262344,15.8588188 L16.7115379,15.8098272 L21.2234059,13.2725188 C22.5110289,12.5524564 22.5110289,11.3675436 21.2234059,10.6429239 L16.7115379,8.1101728 L16.6216233,8.06118121 L12.8163918,11.8266973 Z"/>
    <path fill="#444" d="M16.7115379,15.8098272 L3.2393353,23.3761789 C2.44624252,23.8159638 1.74882807,23.7624149 1.3211574,23.3180726 L12.8163918,11.96 L16.7115379,15.8098272 Z" opacity=".66"/>
  </g>
</svg>
