<svg xmlns="http://www.w3.org/2000/svg" width="16" height="18" viewBox="0 0 16 18"><path fill="#0b0b0a" d="M10.85 0c-.94.07-2.04.67-2.68 1.45a3.57 3.57 0 0 0-.88 2.8 3.5 3.5 0 0 0 2.7-1.38c.58-.75 1.02-1.8.86-2.87zm3.09 15.09c-.74 1.14-1.78 2.55-3.08 2.56-1.15.01-1.44-.75-3-.74-1.56.01-1.89.76-3.04.74-1.29-.01-2.28-1.28-3.02-2.42C-.27 12.06-.48 8.34.79 6.36a4.6 4.6 0 0 1 3.69-2.23c1.37 0 2.23.76 3.36.76 1.1 0 1.77-.76 3.36-.76 1.2 0 2.47.66 3.37 1.79-2.96 1.64-2.48 5.89.51 7.03-.41.92-.61 1.33-1.14 2.14z"/></svg>