<svg xmlns="http://www.w3.org/2000/svg" width="17" height="19" viewBox="0 0 17 19"><path d="M15.65 15.4c-.47-.2-.85-.5-.83-1.07.03-.58-.41-.96-.41-.96s.39-1.27.03-2.31S12.9 8.35 12 7.08c-.91-1.26-.14-2.71-.96-4.58C10.22.64 8.08.75 6.92 1.54c-1.15.8-.79 2.77-.74 3.71a5.2 5.2 0 0 1-.08 1.83c-.11.25-.85 1.13-1.34 1.87-.5.74-.85 2.28-1.21 2.91-.36.63-.11 1.2-.11 1.2s-.25.09-.44.5c-.19.41-.58.6-1.26.74-.69.13-.69.58-.52 1.07.16.49 0 .77-.2 1.4-.19.63.77.82 1.7.93.94.11 1.98.71 2.86.82.88.11 1.15-.6 1.15-.6s.99-.22 2.03-.25a8.43 8.43 0 0 1 2.03.22s.19.44.55.63c.35.19 1.12.22 1.62-.3.49-.52 1.81-1.18 2.55-1.59.74-.41.6-1.04.14-1.23zM9.23 3.3c.47 0 .85.47.85 1.04 0 .41-.19.76-.47.93l-.23-.09c.17-.09.29-.3.29-.55 0-.32-.2-.59-.45-.59-.24 0-.44.27-.44.59 0 .12.02.24.07.33l-.38-.15a1.2 1.2 0 0 1-.09-.47c0-.57.38-1.04.85-1.04zm-.06 2.2c.23.08.49.23.47.38-.03.15-.16.15-.47.35-.32.19-1.01.62-1.23.65-.23.02-.35-.1-.58-.25-.24-.15-.68-.51-.57-.71l.5-.4c.15-.14.53-.47.77-.42.24.04.87.31 1.11.4zM7.05 3.46c.37 0 .67.45.67.99 0 .1-.01.19-.03.28a.77.77 0 0 0-.27.16L7.29 5c.06-.11.09-.27.06-.44-.05-.29-.25-.51-.44-.48-.2.03-.32.3-.27.6.05.3.25.52.45.48h.03l-.27.23c-.28-.12-.48-.5-.48-.94 0-.54.31-.99.68-.99zm-.73 13.86c-.09.4-.55.68-.55.68-.41.13-1.57-.37-2.1-.59-.53-.22-1.86-.29-2.04-.48-.17-.2.09-.64.16-1.05.06-.42-.14-.68-.07-.97.07-.28.92-.28 1.25-.48.33-.2.39-.77.66-.92.26-.15.74.39.94.7.2.31.94 1.62 1.25 1.95.3.33.59.77.5 1.16zm4.85-3.82c-.08.39-.08 1.79-.08 1.79s-.85 1.17-2.16 1.37c-1.32.19-1.98.05-1.98.05l-.74-.85s.58-.08.49-.66c-.08-.57-1.75-1.37-2.05-2.08-.3-.72-.06-1.92.33-2.53.38-.6.63-1.92 1.01-2.36.38-.43.69-1.37.55-1.78 0 0 .82.99 1.4.83.57-.17 1.86-1.13 2.05-.96.2.16 1.84 3.78 2 4.93.17 1.15-.11 2.03-.11 2.03s-.63-.16-.71.22zm4.21 2.59c-.25.23-1.68.81-2.11 1.26-.42.44-.98.8-1.32.7-.34-.11-.64-.58-.49-1.26.15-.68.28-1.43.26-1.85-.02-.43-.11-1.01 0-1.09.11-.08.27-.04.27-.04s-.08.81.41 1.02c.49.21 1.19-.08 1.41-.3.21-.21.36-.53.36-.53s.21.11.19.45c-.02.34.15.83.47 1 .32.17.81.4.55.64z"/></svg>