<svg xmlns="http://www.w3.org/2000/svg" width="494" height="253" viewBox="0 0 494 253">
  <g fill="#D8D8D8" fill-rule="evenodd" opacity=".6">
    <circle cx="117" cy="89" r="2"/>
    <circle cx="147" cy="149" r="2"/>
    <circle cx="227" cy="189" r="2"/>
    <circle cx="277" cy="249" r="2"/>
    <circle cx="197" cy="189" r="2"/>
    <circle cx="118" cy="210" r="2"/>
    <circle cx="417" cy="199" r="2"/>
    <circle cx="367" cy="169" r="2"/>
    <circle cx="327" cy="119" r="2"/>
    <circle cx="287" cy="149" r="2"/>
    <circle cx="247" cy="89" r="2"/>
    <circle cx="207" cy="49" r="2"/>
    <circle cx="147" cy="39" r="2"/>
    <circle cx="67" cy="159" r="2"/>
    <circle cx="37" cy="229" r="2"/>
    <circle cx="482" cy="182" r="2"/>
    <circle cx="442" cy="152" r="2"/>
    <circle cx="492" cy="112" r="2"/>
    <circle cx="422" cy="62" r="2"/>
    <circle cx="352" cy="52" r="2"/>
    <circle cx="302" cy="22" r="2"/>
    <circle cx="172" cy="2" r="2"/>
    <circle cx="172" cy="92" r="2"/>
    <circle cx="42" cy="19" r="2"/>
    <circle cx="11" cy="7" r="2"/>
    <circle cx="9" cy="137" r="2"/>
    <circle cx="59" cy="97" r="2"/>
    <circle cx="102" cy="98" r="1"/>
    <circle cx="62" cy="28" r="1"/>
    <circle cx="154" cy="23" r="1"/>
    <circle cx="254" cy="143" r="1"/>
    <circle cx="182" cy="165" r="1"/>
    <circle cx="142" cy="235" r="1"/>
    <circle cx="11" cy="235" r="1"/>
    <circle cx="1" cy="175" r="1"/>
    <circle cx="310" cy="252" r="1"/>
    <circle cx="467" cy="231" r="1"/>
    <circle cx="467" cy="171" r="1"/>
    <circle cx="447" cy="111" r="1"/>
    <circle cx="467" cy="61" r="1"/>
    <circle cx="427" cy="1" r="1"/>
  </g>
</svg>
